<svg width="88" height="88" viewBox="0 0 200 90" fill="none" xmlns="http://www.w3.org/2000/svg">
  <!-- Background Circle -->
  <circle id="a" cx="100" cy="45" r="100" fill="#FF9BD2"/>

  <!-- Original Paths (Adjusted to Center) -->
  <g transform="translate(40, 0)">
    <path fill-rule="evenodd" clip-rule="evenodd" d="M83.0176 11.7778H38.7416C21.4207 11.7778 7.37935 25.8191 7.37935 43.14C7.37935 60.4609 21.4207 74.5022 38.7416 74.5022H83.0176C100.339 74.5022 114.38 60.4609 114.38 43.14C114.38 25.8191 100.339 11.7778 83.0176 11.7778ZM38.7416 4.39844C17.3452 4.39844 0 21.7436 0 43.14C0 64.5364 17.3452 81.8816 38.7416 81.8816H83.0176C104.414 81.8816 121.759 64.5364 121.759 43.14C121.759 21.7436 104.414 4.39844 83.0176 4.39844H38.7416Z" fill="white"/>
    <path d="M121.759 43.14C121.759 64.5364 104.414 81.8816 83.0179 81.8816C61.6216 81.8816 44.2764 64.5364 44.2764 43.14C44.2764 21.7436 61.6216 4.39844 83.0179 4.39844C104.414 4.39844 121.759 21.7436 121.759 43.14Z" fill="white"/>
  </g>
</svg>
