<svg width="316" height="90" viewBox="0 0 316 90" fill="none" xmlns="http://www.w3.org/2000/svg">
<path d="M0 73.6184V15.3729H15.699V37.5563H15.9265C16.4953 36.0774 17.3296 34.7217 18.4293 33.4893C19.5289 32.2379 20.8941 31.2425 22.5247 30.5031C24.1552 29.7447 26.0512 29.3655 28.2127 29.3655C31.0946 29.3655 33.8344 30.1334 36.4319 31.6691C39.0484 33.2049 41.172 35.6223 42.8025 38.9214C44.4521 42.2204 45.2768 46.5054 45.2768 51.7764C45.2768 56.8198 44.49 61.0005 42.9163 64.3185C41.3616 67.6365 39.2759 70.1108 36.6594 71.7414C34.0619 73.372 31.2084 74.1872 28.0989 74.1872C26.0512 74.1872 24.2216 73.8554 22.61 73.1918C21.0173 72.5093 19.6522 71.5897 18.5146 70.4331C17.3959 69.2576 16.5332 67.9304 15.9265 66.4515H15.5852V73.6184H0ZM15.3577 51.7764C15.3577 53.8999 15.6326 55.739 16.1825 57.2938C16.7513 58.8295 17.5476 60.024 18.5715 60.8772C19.6143 61.7115 20.8562 62.1286 22.2971 62.1286C23.7381 62.1286 24.961 61.721 25.9659 60.9057C26.9898 60.0714 27.7671 58.8864 28.298 57.3506C28.8479 55.7959 29.1228 53.9378 29.1228 51.7764C29.1228 49.6149 28.8479 47.7663 28.298 46.2305C27.7671 44.6758 26.9898 43.4908 25.9659 42.6755C24.961 41.8412 23.7381 41.4241 22.2971 41.4241C20.8562 41.4241 19.6143 41.8412 18.5715 42.6755C17.5476 43.4908 16.7513 44.6758 16.1825 46.2305C15.6326 47.7663 15.3577 49.6149 15.3577 51.7764Z" fill="white"/>
<path d="M64.0189 74.301C61.2318 74.301 58.767 73.846 56.6245 72.9359C54.5009 72.0068 52.8324 70.6038 51.619 68.7267C50.4055 66.8497 49.7988 64.4607 49.7988 61.5598C49.7988 59.1708 50.2065 57.1326 51.0217 55.4451C51.837 53.7387 52.9746 52.3452 54.4346 51.2644C55.8945 50.1837 57.5914 49.3589 59.5254 48.7901C61.4783 48.2213 63.5828 47.8516 65.8391 47.681C68.285 47.4914 70.2473 47.2638 71.7262 46.9984C73.2241 46.714 74.3048 46.3253 74.9684 45.8324C75.632 45.3204 75.9638 44.6473 75.9638 43.8131V43.6993C75.9638 42.5617 75.5277 41.6896 74.6556 41.0828C73.7834 40.4761 72.6647 40.1727 71.2996 40.1727C69.8018 40.1727 68.5788 40.5046 67.6308 41.1682C66.7018 41.8128 66.1425 42.8082 65.9529 44.1544H51.5052C51.6948 41.5 52.5386 39.0541 54.0364 36.8168C55.5532 34.5605 57.7621 32.7593 60.663 31.4132C63.5639 30.048 67.1853 29.3655 71.5271 29.3655C74.6556 29.3655 77.4617 29.7352 79.9454 30.4746C82.4292 31.1951 84.5433 32.2095 86.2876 33.5177C88.032 34.807 89.3591 36.3238 90.2692 38.0682C91.1983 39.7935 91.6628 41.6706 91.6628 43.6993V73.6184H76.9877V67.4754H76.6464C75.7742 69.1059 74.7124 70.4237 73.4611 71.4286C72.2287 72.4334 70.8161 73.1634 69.2235 73.6184C67.6498 74.0735 65.9149 74.301 64.0189 74.301ZM69.1382 64.4038C70.3326 64.4038 71.4513 64.1573 72.4941 63.6644C73.5559 63.1714 74.4186 62.4604 75.0822 61.5313C75.7458 60.6023 76.0776 59.4742 76.0776 58.147V54.5066C75.6605 54.6773 75.2149 54.8384 74.7409 54.9901C74.2858 55.1418 73.7929 55.284 73.262 55.4167C72.7501 55.5494 72.2002 55.6727 71.6125 55.7864C71.0437 55.9002 70.4464 56.0045 69.8207 56.0993C68.6073 56.2889 67.6119 56.6017 66.8345 57.0378C66.0761 57.4549 65.5073 57.9763 65.1281 58.602C64.7678 59.2087 64.5877 59.8913 64.5877 60.6497C64.5877 61.8632 65.0143 62.7922 65.8675 63.4368C66.7207 64.0815 67.811 64.4038 69.1382 64.4038Z" fill="white"/>
<path d="M98.9364 73.6184V15.3729H114.635V37.5563H114.863C115.432 36.0774 116.266 34.7217 117.366 33.4893C118.465 32.2379 119.83 31.2425 121.461 30.5031C123.092 29.7447 124.988 29.3655 127.149 29.3655C130.031 29.3655 132.771 30.1334 135.368 31.6691C137.985 33.2049 140.108 35.6223 141.739 38.9214C143.388 42.2204 144.213 46.5054 144.213 51.7764C144.213 56.8198 143.426 61.0005 141.853 64.3185C140.298 67.6365 138.212 70.1108 135.596 71.7414C132.998 73.372 130.145 74.1872 127.035 74.1872C124.988 74.1872 123.158 73.8554 121.546 73.1918C119.954 72.5093 118.589 71.5897 117.451 70.4331C116.332 69.2576 115.47 67.9304 114.863 66.4515H114.522V73.6184H98.9364ZM114.294 51.7764C114.294 53.8999 114.569 55.739 115.119 57.2938C115.688 58.8295 116.484 60.024 117.508 60.8772C118.551 61.7115 119.793 62.1286 121.234 62.1286C122.674 62.1286 123.897 61.721 124.902 60.9057C125.926 60.0714 126.704 58.8864 127.234 57.3506C127.784 55.7959 128.059 53.9378 128.059 51.7764C128.059 49.6149 127.784 47.7663 127.234 46.2305C126.704 44.6758 125.926 43.4908 124.902 42.6755C123.897 41.8412 122.674 41.4241 121.234 41.4241C119.793 41.4241 118.551 41.8412 117.508 42.6755C116.484 43.4908 115.688 44.6758 115.119 46.2305C114.569 47.7663 114.294 49.6149 114.294 51.7764Z" fill="white"/>
<path d="M159.009 90C157.208 90 155.492 89.8578 153.862 89.5734C152.231 89.308 150.8 88.9382 149.567 88.4642L152.98 77.3157C154.269 77.7707 155.445 78.0646 156.507 78.1973C157.587 78.33 158.507 78.2542 159.265 77.9698C160.043 77.6854 160.602 77.145 160.943 76.3487L161.284 75.5524L145.927 29.9343H162.308L169.361 60.1947H169.817L176.983 29.9343H193.479L177.552 77.2588C176.756 79.6667 175.599 81.8282 174.083 83.7432C172.585 85.6771 170.613 87.2034 168.167 88.322C165.721 89.4407 162.669 90 159.009 90Z" fill="white"/>
<path d="M213.643 15.3729V73.6184H197.944V15.3729H213.643Z" fill="white"/>
<path d="M242.687 45.0493C237.947 45.0493 233.89 44.1108 230.515 42.2337C227.14 40.3377 224.552 37.7022 222.751 34.3273C220.95 30.9335 220.049 26.9992 220.049 22.5247C220.049 18.0501 220.95 14.1253 222.751 10.7504C224.552 7.35653 227.14 4.72107 230.515 2.84402C233.89 0.948005 237.947 0 242.687 0C247.427 0 251.485 0.948005 254.86 2.84402C258.235 4.72107 260.823 7.35653 262.624 10.7504C264.425 14.1253 265.326 18.0501 265.326 22.5247C265.326 26.9992 264.425 30.9335 262.624 34.3273C260.823 37.7022 258.235 40.3377 254.86 42.2337C251.485 44.1108 247.427 45.0493 242.687 45.0493ZM242.801 33.4457C244.128 33.4457 245.276 33.0001 246.242 32.109C247.209 31.2179 247.958 29.9475 248.489 28.298C249.02 26.6485 249.286 24.6861 249.286 22.4109C249.286 20.1167 249.02 18.1543 248.489 16.5238C247.958 14.8742 247.209 13.6039 246.242 12.7128C245.276 11.8216 244.128 11.3761 242.801 11.3761C241.398 11.3761 240.194 11.8216 239.189 12.7128C238.184 13.6039 237.417 14.8742 236.886 16.5238C236.355 18.1543 236.089 20.1167 236.089 22.4109C236.089 24.6861 236.355 26.6485 236.886 28.298C237.417 29.9475 238.184 31.2179 239.189 32.109C240.194 33.0001 241.398 33.4457 242.801 33.4457Z" fill="white"/>
<path d="M287.396 49.0461V73.6184H271.696V29.9343H286.599V38.2388H287.054C288.002 35.4706 289.671 33.2997 292.06 31.726C294.468 30.1523 297.274 29.3655 300.478 29.3655C303.569 29.3655 306.251 30.0765 308.527 31.4985C310.821 32.9015 312.594 34.8355 313.845 37.3003C315.115 39.7651 315.741 42.5807 315.722 45.747V73.6184H300.023V49.0461C300.042 46.8846 299.492 45.1877 298.373 43.9553C297.274 42.7229 295.738 42.1067 293.766 42.1067C292.477 42.1067 291.349 42.3911 290.382 42.9599C289.434 43.5097 288.704 44.3061 288.192 45.3489C287.68 46.3727 287.414 47.6051 287.396 49.0461Z" fill="white"/>
</svg>
