<svg width="88" height="88" viewBox="0 0 200 90" fill="none" xmlns="http://www.w3.org/2000/svg">
  <!-- Background Circle -->
  <circle id="a" cx="100" cy="45" r="100" fill="#FFEAA7"/>

  <!-- Original Paths (Centered) -->
  <g transform="translate(35,-25)">
    <path d="M44.0068 79.9434H82.0401V94.8259C82.0401 98.479 79.0787 101.44 75.4256 101.44H50.6213C46.9682 101.44 44.0068 98.479 44.0068 94.8259V79.9434Z" fill="#FF6868"/>
    <path fill-rule="evenodd" clip-rule="evenodd" d="M53.9073 21.5518C44.8511 23.3954 36.8713 28.1996 31.0224 34.9098C31.0222 34.9096 31.0226 34.9099 31.0224 34.9098C24.6914 42.173 20.8564 51.6689 20.8564 62.0607V63.5031C20.8568 63.5025 20.8571 63.5019 20.8574 63.5013V65.0172C20.8574 65.3429 20.8574 65.5057 20.8607 65.6434C21.0077 71.8205 25.9803 76.793 32.1573 76.94C32.295 76.9433 32.4579 76.9433 32.7835 76.9433H91.6124C91.938 76.9433 92.1009 76.9433 92.2386 76.94C98.4156 76.793 103.388 71.8205 103.535 65.6434C103.538 65.5057 103.538 65.3429 103.538 65.0172V62.0608C103.538 39.229 85.0297 20.7202 62.1979 20.7202C59.3588 20.7202 56.5855 21.0066 53.9073 21.5518C53.9073 21.5517 53.9073 21.5518 53.9073 21.5518ZM53.7021 24.9799C52.4698 31.9567 46.3773 37.2563 39.047 37.2563C37.3161 37.2563 35.6543 36.9608 34.1092 36.4176C39.2382 30.8026 46.0284 26.7308 53.7021 24.9799ZM74.2085 25.9628C75.8144 32.4484 81.6735 37.2563 88.6554 37.2563C89.4138 37.2563 90.1589 37.1996 90.8867 37.0902C86.4702 32.0203 80.7318 28.1322 74.2085 25.9628ZM100.121 59.1393C97.501 56.84 94.0671 55.4461 90.3076 55.4461C82.0882 55.4461 75.4251 62.1092 75.4251 70.3286C75.4251 71.4654 75.5525 72.5724 75.7939 73.6361H91.6124C91.9571 73.6361 92.0714 73.6358 92.1599 73.6337C96.572 73.5287 100.124 69.9769 100.229 65.5647C100.231 65.4763 100.231 65.3619 100.231 65.0172V62.0608C100.231 61.0778 100.194 60.1035 100.121 59.1393ZM48.5988 73.6361C48.8402 72.5724 48.9677 71.4654 48.9677 70.3286C48.9677 62.1092 42.3045 55.4461 34.0851 55.4461C30.3272 55.4461 26.8946 56.8388 24.2754 59.1363C24.202 60.1015 24.1647 61.0768 24.1647 62.0607V65.0172C24.1647 65.3619 24.1649 65.4763 24.167 65.5647C24.272 69.9769 27.8239 73.5287 32.236 73.6337C32.3245 73.6358 32.4388 73.6361 32.7835 73.6361H48.5988ZM77.0798 48.8317C77.0798 57.0511 70.4167 63.7143 62.1972 63.7143C53.9778 63.7143 47.3147 57.0511 47.3147 48.8317C47.3147 40.6123 53.9778 33.9491 62.1972 33.9491C70.4167 33.9491 77.0798 40.6123 77.0798 48.8317Z" fill="#FF6868"/>
  </g>
</svg>
