<svg width="356" height="122" viewBox="0 0 356 122" fill="none" xmlns="http://www.w3.org/2000/svg">
<path d="M44.0068 79.9434H82.0401V94.8259C82.0401 98.479 79.0787 101.44 75.4256 101.44H50.6213C46.9682 101.44 44.0068 98.479 44.0068 94.8259V79.9434Z" fill="black"/>
<path fill-rule="evenodd" clip-rule="evenodd" d="M53.9073 21.5518C44.8511 23.3954 36.8713 28.1996 31.0224 34.9098C31.0222 34.9096 31.0226 34.9099 31.0224 34.9098C24.6914 42.173 20.8564 51.6689 20.8564 62.0607V63.5031C20.8568 63.5025 20.8571 63.5019 20.8574 63.5013V65.0172C20.8574 65.3429 20.8574 65.5057 20.8607 65.6434C21.0077 71.8205 25.9803 76.793 32.1573 76.94C32.295 76.9433 32.4579 76.9433 32.7835 76.9433H91.6124C91.938 76.9433 92.1009 76.9433 92.2386 76.94C98.4156 76.793 103.388 71.8205 103.535 65.6434C103.538 65.5057 103.538 65.3429 103.538 65.0172V62.0608C103.538 39.229 85.0297 20.7202 62.1979 20.7202C59.3588 20.7202 56.5855 21.0066 53.9073 21.5518C53.9073 21.5517 53.9073 21.5518 53.9073 21.5518ZM53.7021 24.9799C52.4698 31.9567 46.3773 37.2563 39.047 37.2563C37.3161 37.2563 35.6543 36.9608 34.1092 36.4176C39.2382 30.8026 46.0284 26.7308 53.7021 24.9799ZM74.2085 25.9628C75.8144 32.4484 81.6735 37.2563 88.6554 37.2563C89.4138 37.2563 90.1589 37.1996 90.8867 37.0902C86.4702 32.0203 80.7318 28.1322 74.2085 25.9628ZM100.121 59.1393C97.501 56.84 94.0671 55.4461 90.3076 55.4461C82.0882 55.4461 75.4251 62.1092 75.4251 70.3286C75.4251 71.4654 75.5525 72.5724 75.7939 73.6361H91.6124C91.9571 73.6361 92.0714 73.6358 92.1599 73.6337C96.572 73.5287 100.124 69.9769 100.229 65.5647C100.231 65.4763 100.231 65.3619 100.231 65.0172V62.0608C100.231 61.0778 100.194 60.1035 100.121 59.1393ZM48.5988 73.6361C48.8402 72.5724 48.9677 71.4654 48.9677 70.3286C48.9677 62.1092 42.3045 55.4461 34.0851 55.4461C30.3272 55.4461 26.8946 56.8388 24.2754 59.1363C24.202 60.1015 24.1647 61.0768 24.1647 62.0607V65.0172C24.1647 65.3619 24.1649 65.4763 24.167 65.5647C24.272 69.9769 27.8239 73.5287 32.236 73.6337C32.3245 73.6358 32.4388 73.6361 32.7835 73.6361H48.5988ZM77.0798 48.8317C77.0798 57.0511 70.4167 63.7143 62.1972 63.7143C53.9778 63.7143 47.3147 57.0511 47.3147 48.8317C47.3147 40.6123 53.9778 33.9491 62.1972 33.9491C70.4167 33.9491 77.0798 40.6123 77.0798 48.8317Z" fill="black"/>
<path d="M128.254 82.7202V34.0107H136.913V82.7202H128.254Z" fill="black"/>
<path d="M158.683 83.532C155.3 83.532 152.301 82.8104 149.685 81.3671C147.069 79.9239 145.017 77.8943 143.529 75.2785C142.041 72.6626 141.296 69.6408 141.296 66.2131C141.296 62.7403 142.018 59.6508 143.461 56.9448C144.95 54.2387 146.979 52.1415 149.55 50.6531C152.166 49.1197 155.233 48.353 158.751 48.353C162.043 48.353 164.952 49.0746 167.478 50.5178C170.003 51.9611 171.965 53.9455 173.364 56.4712C174.807 58.9518 175.528 61.7255 175.528 64.7924C175.528 65.2885 175.506 65.8072 175.461 66.3484C175.461 66.8896 175.438 67.4534 175.393 68.0397H149.888C150.069 70.6556 150.971 72.7077 152.594 74.196C154.263 75.6844 156.27 76.4285 158.615 76.4285C160.374 76.4285 161.84 76.0452 163.013 75.2785C164.23 74.4666 165.133 73.4293 165.719 72.1665H174.514C173.882 74.2862 172.822 76.2256 171.334 77.9845C169.891 79.6984 168.087 81.0514 165.922 82.0437C163.802 83.0359 161.389 83.532 158.683 83.532ZM158.751 55.3888C156.631 55.3888 154.759 55.9976 153.136 57.2154C151.512 58.388 150.475 60.1921 150.024 62.6275H166.734C166.598 60.4176 165.786 58.6586 164.298 57.3507C162.81 56.0427 160.961 55.3888 158.751 55.3888Z" fill="black"/>
<path d="M187.173 82.7202L174.86 49.1648H183.926L192.45 74.5343L200.974 49.1648H210.039L197.659 82.7202H187.173Z" fill="black"/>
<path d="M226.771 83.532C223.388 83.532 220.389 82.8104 217.773 81.3671C215.157 79.9239 213.105 77.8943 211.617 75.2785C210.129 72.6626 209.384 69.6408 209.384 66.2131C209.384 62.7403 210.106 59.6508 211.549 56.9448C213.038 54.2387 215.067 52.1415 217.638 50.6531C220.254 49.1197 223.321 48.353 226.839 48.353C230.131 48.353 233.04 49.0746 235.566 50.5178C238.091 51.9611 240.053 53.9455 241.452 56.4712C242.895 58.9518 243.616 61.7255 243.616 64.7924C243.616 65.2885 243.594 65.8072 243.549 66.3484C243.549 66.8896 243.526 67.4534 243.481 68.0397H217.976C218.157 70.6556 219.059 72.7077 220.682 74.196C222.351 75.6844 224.358 76.4285 226.703 76.4285C228.462 76.4285 229.928 76.0452 231.101 75.2785C232.319 74.4666 233.221 73.4293 233.807 72.1665H242.602C241.97 74.2862 240.91 76.2256 239.422 77.9845C237.979 79.6984 236.175 81.0514 234.01 82.0437C231.89 83.0359 229.477 83.532 226.771 83.532ZM226.839 55.3888C224.719 55.3888 222.847 55.9976 221.224 57.2154C219.6 58.388 218.563 60.1921 218.112 62.6275H234.822C234.686 60.4176 233.875 58.6586 232.386 57.3507C230.898 56.0427 229.049 55.3888 226.839 55.3888Z" fill="black"/>
<path d="M247.517 82.7202V34.0107H256.176V82.7202H247.517Z" fill="black"/>
<path d="M274.225 83.532C270.031 83.532 266.784 82.2241 264.483 79.6082C262.228 76.9923 261.101 73.1587 261.101 68.1073V49.1648H269.693V67.2955C269.693 70.182 270.279 72.392 271.451 73.9254C272.624 75.4589 274.473 76.2256 276.999 76.2256C279.389 76.2256 281.351 75.3687 282.885 73.6548C284.463 71.941 285.252 69.5506 285.252 66.4837V49.1648H293.912V82.7202H286.267L285.591 77.0374C284.553 79.0219 283.043 80.6004 281.058 81.773C279.119 82.9457 276.841 83.532 274.225 83.532Z" fill="black"/>
<path d="M299.419 97.6036V49.1648H307.131L308.078 53.9681C309.161 52.4797 310.581 51.1718 312.34 50.0443C314.144 48.9167 316.467 48.353 319.308 48.353C322.465 48.353 325.284 49.1197 327.765 50.6531C330.245 52.1866 332.207 54.2838 333.651 56.9448C335.094 59.6057 335.815 62.6275 335.815 66.0101C335.815 69.3927 335.094 72.4145 333.651 75.0755C332.207 77.6914 330.245 79.766 327.765 81.2995C325.284 82.7878 322.465 83.532 319.308 83.532C316.783 83.532 314.573 83.0584 312.678 82.1113C310.784 81.1642 309.251 79.8337 308.078 78.1198V97.6036H299.419ZM317.482 75.955C320.233 75.955 322.511 75.0304 324.315 73.1812C326.119 71.3321 327.021 68.9417 327.021 66.0101C327.021 63.0785 326.119 60.6656 324.315 58.7714C322.511 56.8771 320.233 55.93 317.482 55.93C314.686 55.93 312.385 56.8771 310.581 58.7714C308.822 60.6205 307.943 63.0109 307.943 65.9425C307.943 68.8741 308.822 71.287 310.581 73.1812C312.385 75.0304 314.686 75.955 317.482 75.955Z" fill="black"/>
</svg>
